HIERARCHY
ROOT Hips
{
  OFFSET 53.0761 91.5558 6.22084
  CHANNELS 6 Xposition Yposition Zposition Zrotation Xrotation Yrotation
  JOINT spine
  {
    OFFSET 0 6.84637 0.3937
    CHANNELS 3 Zrotation Xrotation Yrotation
    JOINT spine1
    {
      OFFSET 0 9.49621 0
      CHANNELS 3 Zrotation Xrotation Yrotation
      JOINT spine2
      {
        OFFSET 0 9.09909 0
        CHANNELS 3 Zrotation Xrotation Yrotation
        JOINT Neck
        {
          OFFSET 0 23.3612 1.11378
          CHANNELS 3 Zrotation Xrotation Yrotation
          JOINT Head
          {
            OFFSET 0 7.05802 0
            CHANNELS 3 Zrotation Xrotation Yrotation
            End Site
            {
              OFFSET 0 17.0844 -5.63419
            }
          }
        }
        JOINT RightShoulder
        {
          OFFSET -3.83136 9.82631 -0.533491
          CHANNELS 3 Zrotation Xrotation Yrotation
          JOINT RightArm
          {
            OFFSET 0 12.8881 0
            CHANNELS 3 Zrotation Xrotation Yrotation
            JOINT RightArmRoll
            {
              OFFSET 0 6.50617 0
              CHANNELS 3 Zrotation Xrotation Yrotation
              JOINT RightForeArm
              {
                OFFSET 0 18.9501 0
                CHANNELS 3 Zrotation Xrotation Yrotation
                JOINT RightForeArmRoll
                {
                  OFFSET 0 7.30092 0
                  CHANNELS 3 Zrotation Xrotation Yrotation
                  JOINT RightHand
                  {
                    OFFSET 0 14.6514 0
                    CHANNELS 3 Zrotation Xrotation Yrotation
                    End Site
                    {
                      OFFSET 0 0 0
                    }
                  }
                }
              }
            }
          }
        }
        JOINT LeftShoulder
        {
          OFFSET 3.83136 9.82631 -0.533491
          CHANNELS 3 Zrotation Xrotation Yrotation
          JOINT LeftArm
          {
            OFFSET 0 12.8881 0
            CHANNELS 3 Zrotation Xrotation Yrotation
            JOINT LeftArmRoll
            {
              OFFSET 0 6.50617 0
              CHANNELS 3 Zrotation Xrotation Yrotation
              JOINT LeftForeArm
              {
                OFFSET 0 18.9501 0
                CHANNELS 3 Zrotation Xrotation Yrotation
                JOINT LeftForeArmRoll
                {
                  OFFSET 0 7.30092 0
                  CHANNELS 3 Zrotation Xrotation Yrotation
                  JOINT LeftHand
                  {
                    OFFSET 0 14.6514 0
                    CHANNELS 3 Zrotation Xrotation Yrotation
                    End Site
                    {
                      OFFSET 0 0 0
                    }
                  }
                }
              }
            }
          }
        }
      }
    }
  }
  JOINT RightUpLeg
  {
    OFFSET -6.06837 -1.11278 -0.933477
    CHANNELS 3 Zrotation Xrotation Yrotation
    JOINT RightUpLegRoll
    {
      OFFSET 0 17.1796 0
      CHANNELS 3 Zrotation Xrotation Yrotation
      JOINT RightLeg
      {
        OFFSET 0 -21.2743 0
        CHANNELS 3 Zrotation Xrotation Yrotation
        JOINT RightLegRoll
        {
          OFFSET 0 21.3439 0
          CHANNELS 3 Zrotation Xrotation Yrotation
          JOINT RightFoot
          {
            OFFSET 0 17.7652 0
            CHANNELS 3 Zrotation Xrotation Yrotation
            JOINT RightToeBase
            {
              OFFSET 0 14.8508 0
              CHANNELS 3 Zrotation Xrotation Yrotation
              End Site
              {
                OFFSET 0.0062947 7.19214 -0.829005
              }
            }
          }
        }
      }
    }
  }
  JOINT LeftUpLeg
  {
    OFFSET 6.06837 -1.11278 -0.933477
    CHANNELS 3 Zrotation Xrotation Yrotation
    JOINT LeftUpLegRoll
    {
      OFFSET 0 17.1797 0
      CHANNELS 3 Zrotation Xrotation Yrotation
      JOINT LeftLeg
      {
        OFFSET 0 21.2742 0
        CHANNELS 3 Zrotation Xrotation Yrotation
        JOINT LeftLegRoll
        {
          OFFSET 0 21.5412 0
          CHANNELS 3 Zrotation Xrotation Yrotation
          JOINT LeftFoot
          {
            OFFSET 0 17.5679 0
            CHANNELS 3 Zrotation Xrotation Yrotation
            JOINT LeftToeBase
            {
              OFFSET 0 14.8508 0
              CHANNELS 3 Zrotation Xrotation Yrotation
              End Site
              {
                OFFSET -0.0282102 7.19214 -0.829005
              }
            }
          }
        }
      }
    }
  }
}
MOTION
Frames: 7
Frame Time: 0.00208333
53.1557 91.6639 6.25954 0.555862 -1.84877 -1.01991 0.102895 -1.97982 -0.223653 0.210699 0.0427631 -0.457173 0.216445 1.68781 -0.460897 -9.23513 20.0523 2.23991 6.80668 -4.27098 -0.21531 68.7064 6.73872 2.24675 105.365 3.28236 18.0818 -6.21698e-007 1.46346e-006 -1.0093e-006 7.31207 10.8591 -1.8949 8.61322e-007 -3.22962e-006 -3.00633 8.02923 -4.95143 0.697649 -74.516 4.24149 -0.0943273 -101.511 4.96606 -25.8343 -1.91826e-007 9.45429e-007 3.62357e-006 -10.0212 5.79145 0.979899 5.50518e-006 -5.42937e-006 3.00747 -8.02894 -4.95143 -0.69768 174.839 0.939084 1.93323 180 7.01549e-015 178.931 177.213 4.31775 -179.995 -1.98412e-006 2.66227e-006 0.0413177 -18.6742 67.9275 19.4751 8.1365 25.2327 -3.48774 -176.043 -3.26184 0.720738 4.54188e-006 -4.6773e-006 -1.15301 -1.04938 -3.97727 0.0640715 -1.35771e-006 1.24203e-006 -0.037545 18.7856 68.0362 -19.5693 -8.13649 25.2327 3.48774 
53.1572 91.6667 6.25589 0.558487 -1.83949 -1.02078 0.102836 -1.98203 -0.223979 0.209809 0.0383506 -0.45781 0.215548 1.6834 -0.461512 -9.24568 20.0077 2.24219 6.81847 -4.2401 -0.213799 68.6879 6.71573 2.23868 105.367 3.28632 18.1251 -6.21698e-007 1.46346e-006 -1.0093e-006 7.27838 10.8436 -1.89158 8.61322e-007 -3.22962e-006 -3.00633 8.02923 -4.95143 0.697649 -74.5155 4.2278 -0.0884042 -101.5 4.97963 -25.8582 -1.91826e-007 9.45429e-007 3.62357e-006 -9.99846 5.76022 0.974501 5.50518e-006 -5.42937e-006 3.00747 -8.02894 -4.95143 -0.69768 174.836 0.952007 1.93334 180 7.01549e-015 178.931 177.213 4.32263 -179.995 -1.98412e-006 2.66227e-006 0.0413177 -18.6753 67.9288 19.4763 8.1365 25.2327 -3.48774 -176.047 -3.25361 0.725486 4.54188e-006 -4.6773e-006 -1.15301 -1.04765 -3.9728 0.0642715 -1.35771e-006 1.24203e-006 -0.037545 18.787 68.0378 -19.5708 -8.13649 25.2327 3.48774 
53.1571 91.6653 6.23749 0.561356 -1.82942 -1.02208 0.102742 -1.98443 -0.224264 0.208831 0.0335689 -0.458362 0.214561 1.67861 -0.462039 -9.25687 19.9639 2.24486 6.83086 -4.21008 -0.212059 68.67 6.69352 2.23093 105.368 3.29001 18.1677 -6.21698e-007 1.46346e-006 -1.0093e-006 7.24536 10.8284 -1.88834 8.61322e-007 -3.22962e-006 -3.00633 8.02923 -4.95143 0.697649 -74.5157 4.21446 -0.0825436 -101.488 4.99263 -25.8816 -1.91826e-007 9.45429e-007 3.62357e-006 -9.97654 5.72965 0.969219 5.50518e-006 -5.42937e-006 3.00747 -8.02894 -4.95143 -0.69768 174.834 0.966125 1.93356 180 7.01549e-015 178.931 177.214 4.32793 -179.995 -1.98412e-006 2.66227e-006 0.0413177 -18.6765 67.9302 19.4775 8.1365 25.2327 -3.48774 -176.052 -3.24463 0.730542 4.54188e-006 -4.6773e-006 -1.15301 -1.04585 -3.96823 0.0644778 -1.35771e-006 1.24203e-006 -0.037545 18.7884 68.0394 -19.5723 -8.13649 25.2327 3.48774 
53.1551 91.6673 6.24138 0.564395 -1.81881 -1.02366 0.102625 -1.98695 -0.224519 0.20779 0.0285288 -0.458853 0.213511 1.67357 -0.462504 -9.2685 19.9206 2.2478 6.84369 -4.18066 -0.210161 68.6523 6.67186 2.2234 105.37 3.29351 18.2097 -6.21698e-007 1.46346e-006 -1.0093e-006 7.21282 10.8136 -1.88513 8.61322e-007 -3.22962e-006 -3.00633 8.02923 -4.95143 0.697649 -74.5164 4.20137 -0.0767267 -101.476 5.00523 -25.9046 -1.91826e-007 9.45429e-007 3.62357e-006 -9.95519 5.69956 0.964016 5.50518e-006 -5.42937e-006 3.00747 -8.02894 -4.95143 -0.69768 174.831 0.981079 1.93386 180 7.01549e-015 178.931 177.215 4.33347 -179.995 -1.98412e-006 2.66227e-006 0.0413177 -18.6777 67.9316 19.4788 8.1365 25.2327 -3.48774 -176.057 -3.23511 0.735813 4.54188e-006 -4.6773e-006 -1.15301 -1.04401 -3.9636 0.0646885 -1.35771e-006 1.24203e-006 -0.037545 18.7898 68.0411 -19.5739 -8.13649 25.2327 3.48774 
53.1525 91.6673 6.2413 0.567532 -1.80788 -1.02542 0.102494 -1.98955 -0.224758 0.206715 0.0233409 -0.45931 0.212425 1.66839 -0.462934 -9.28038 19.8776 2.25089 6.85676 -4.15159 -0.208172 68.6349 6.65051 2.216 105.371 3.29691 18.2514 -6.21698e-007 1.46346e-006 -1.0093e-006 7.18055 10.7989 -1.88195 8.61322e-007 -3.22962e-006 -3.00633 8.02923 -4.95143 0.697649 -74.5173 4.18842 -0.070935 -101.464 5.0176 -25.9274 -1.91826e-007 9.45429e-007 3.62357e-006 -9.93419 5.66973 0.958861 5.50518e-006 -5.42937e-006 3.00747 -8.02894 -4.95143 -0.69768 174.828 0.996511 1.93419 180 7.01549e-015 178.931 177.216 4.33919 -179.994 -1.98412e-006 2.66227e-006 0.0413177 -18.6789 67.9331 19.4801 8.1365 25.2327 -3.48774 -176.063 -3.22529 0.741208 4.54188e-006 -4.6773e-006 -1.15301 -1.04214 -3.95892 0.0649017 -1.35771e-006 1.24203e-006 -0.037545 18.7913 68.0429 -19.5754 -8.13649 25.2327 3.48774 
53.1524 91.6642 6.23844 0.570694 -1.79687 -1.02722 0.10236 -1.99218 -0.224993 0.205631 0.0181162 -0.459759 0.21133 1.66316 -0.463355 -9.29232 19.8348 2.25402 6.86988 -4.1226 -0.20616 68.6175 6.62924 2.20864 105.373 3.30028 18.293 -6.21698e-007 1.46346e-006 -1.0093e-006 7.14835 10.7843 -1.87878 8.61322e-007 -3.22962e-006 -3.00633 8.02923 -4.95143 0.697649 -74.5182 4.1755 -0.0651496 -101.452 5.02991 -25.9502 -1.91826e-007 9.45429e-007 3.62357e-006 -9.91327 5.63997 0.953717 5.50518e-006 -5.42937e-006 3.00747 -8.02894 -4.95143 -0.69768 174.825 1.01206 1.93454 180 7.01549e-015 178.931 177.217 4.34491 -179.994 -1.98412e-006 2.66227e-006 0.0413177 -18.6801 67.9345 19.4814 8.1365 25.2327 -3.48774 -176.068 -3.21539 0.746633 4.54188e-006 -4.6773e-006 -1.15301 -1.04026 -3.95424 0.0651156 -1.35771e-006 1.24203e-006 -0.037545 18.7927 68.0446 -19.577 -8.13649 25.2327 3.48774 
53.1522 91.6647 6.24223 0.573808 -1.78602 -1.02894 0.102233 -1.99476 -0.225236 0.204564 0.0129653 -0.460225 0.210253 1.65801 -0.463793 -9.30413 19.7917 2.25707 6.88288 -4.09344 -0.204194 68.6 6.60782 2.20121 105.375 3.30369 18.3348 -6.21698e-007 1.46346e-006 -1.0093e-006 7.11602 10.7695 -1.8756 8.61322e-007 -3.22962e-006 -3.00633 8.02923 -4.95143 0.697649 -74.519 4.16251 -0.059352 -101.44 5.04233 -25.973 -1.91826e-007 9.45429e-007 3.62357e-006 -9.89219 5.61007 0.948551 5.50518e-006 -5.42937e-006 3.00747 -8.02894 -4.95143 -0.69768 174.822 1.02738 1.93486 180 7.01549e-015 178.931 177.218 4.35057 -179.994 -1.98412e-006 2.66227e-006 0.0413177 -18.6813 67.936 19.4827 8.1365 25.2327 -3.48774 -176.073 -3.20565 0.751996 4.54188e-006 -4.6773e-006 -1.15301 -1.0384 -3.94957 0.0653282 -1.35771e-006 1.24203e-006 -0.037545 18.7942 68.0463 -19.5786 -8.13649 25.2327 3.48774 
